<?xml version="1.0" standalone="no"?>
<!DOCTYPE svg PUBLIC "-//W3C//DTD SVG 20010904//EN"
 "http://www.w3.org/TR/2001/REC-SVG-20010904/DTD/svg10.dtd">
<svg version="1.0" xmlns="http://www.w3.org/2000/svg"
 width="387.000000pt" height="387.000000pt" viewBox="0 0 387.000000 387.000000"
 preserveAspectRatio="xMidYMid meet">
<metadata>
Created by potrace 1.14, written by Peter Selinger 2001-2017
</metadata>
<g transform="translate(0.000000,387.000000) scale(0.100000,-0.100000)"
fill="#000000" stroke="none">
<path d="M1855 3847 c-16 -5 -37 -16 -46 -23 -8 -8 -21 -14 -27 -14 -7 0 -12
-4 -12 -8 0 -5 -8 -17 -17 -28 -45 -48 -54 -135 -24 -214 l19 -50 -24 4 c-13
3 -26 1 -29 -4 -3 -5 -16 -6 -28 -2 -17 6 -222 8 -222 2 0 0 -18 -3 -40 -5
-22 -2 -51 -7 -65 -10 -14 -3 -32 -8 -40 -10 -8 -2 -15 -4 -15 -5 0 -1 -10 -3
-23 -6 -29 -5 -136 -56 -140 -66 -2 -5 -8 -8 -13 -8 -18 0 -169 -122 -169
-136 0 -4 -13 -20 -30 -35 -16 -16 -30 -31 -30 -34 0 -8 -34 -59 -45 -67 -5
-4 -7 -8 -2 -8 4 0 0 -15 -10 -32 -9 -18 -18 -35 -18 -38 0 -3 -8 -27 -18 -55
-9 -27 -19 -69 -21 -92 -5 -51 -12 -63 -36 -63 -33 0 -125 -46 -156 -78 -54
-56 -70 -87 -82 -152 -12 -67 -6 -268 8 -285 7 -8 10 -15 6 -15 -14 0 29 -67
69 -107 37 -37 79 -63 96 -59 3 0 13 -5 22 -12 9 -8 20 -11 24 -9 11 7 48 -15
49 -28 4 -52 84 -215 104 -215 6 0 9 -4 8 -9 -2 -4 23 -33 54 -64 l57 -56 -22
-48 c-37 -80 -42 -85 -78 -88 -19 -1 -43 -6 -54 -10 -24 -10 -86 -76 -80 -86
4 -6 -18 -16 -55 -24 -20 -5 -66 -61 -68 -83 -1 -9 -2 -106 -2 -215 -1 -198
-7 -237 -37 -237 -13 0 -85 -82 -90 -102 -14 -63 -19 -97 -16 -114 1 -10 4
-29 5 -41 1 -13 6 -23 10 -23 4 0 8 -9 8 -20 0 -11 5 -20 11 -20 5 0 7 -5 4
-10 -3 -6 1 -10 9 -10 8 0 18 -9 21 -20 3 -11 13 -20 21 -20 8 0 14 -4 14 -8
0 -5 11 -15 25 -22 21 -11 38 -37 40 -62 0 -9 63 -78 70 -78 3 0 20 -6 38 -13
17 -8 44 -17 60 -21 41 -10 64 -38 71 -89 4 -26 11 -49 17 -52 5 -4 7 -9 5
-13 -2 -4 9 -25 25 -47 16 -22 33 -49 39 -60 11 -20 41 -42 110 -78 58 -30
230 -27 230 5 0 5 4 7 9 3 5 -3 15 1 23 8 7 7 16 13 19 13 4 -1 22 17 40 39
63 73 91 96 104 85 6 -5 20 -11 31 -13 10 -2 28 -7 39 -11 78 -30 95 -36 98
-34 10 6 57 -20 80 -45 45 -48 92 -68 162 -69 72 0 87 6 156 68 29 25 57 43
65 40 8 -3 14 0 14 6 0 6 3 9 6 5 4 -3 19 0 35 8 15 8 37 15 49 15 11 0 20 5
20 12 0 6 3 9 6 5 4 -3 21 0 38 7 24 9 36 10 54 0 13 -6 23 -15 22 -19 -3 -11
83 -99 110 -112 58 -29 108 -40 165 -37 82 6 85 6 85 16 0 4 8 8 18 8 11 0 27
9 37 20 10 11 24 20 32 20 8 0 12 4 9 9 -3 5 0 11 8 14 17 7 81 97 69 97 -4 0
-2 4 5 8 7 5 15 19 18 33 8 38 12 54 14 57 3 3 7 20 9 36 0 7 13 18 29 24 15
6 36 13 47 18 11 4 25 8 30 8 19 2 80 39 100 60 11 12 28 39 38 61 11 24 34
50 58 64 21 14 42 33 45 43 3 10 9 16 13 13 12 -7 43 80 46 129 3 46 -17 114
-37 127 -7 5 -9 9 -3 9 5 0 -12 20 -39 45 -27 25 -53 45 -57 45 -4 0 -7 94 -7
209 0 238 -7 271 -58 296 -18 8 -36 15 -41 15 -6 0 -29 22 -52 50 -23 27 -52
52 -65 56 -33 8 -59 12 -78 13 -10 1 -26 19 -38 44 -11 23 -26 50 -32 59 -15
21 4 68 27 68 9 0 13 5 10 10 -3 6 -1 10 5 10 6 0 22 11 36 25 14 14 23 25 20
25 -3 0 6 12 19 26 30 32 80 136 90 184 8 38 20 50 49 50 27 0 121 46 149 73
26 24 76 108 80 135 1 9 5 22 8 27 8 15 4 235 -5 270 -12 47 -36 95 -47 95 -6
0 -7 5 -4 10 3 6 3 10 -2 10 -4 0 -22 14 -40 30 -18 17 -34 30 -36 30 -3 0
-22 8 -43 17 -22 9 -48 18 -59 20 -27 5 -33 13 -38 53 -3 19 -6 37 -7 40 -1 3
-3 10 -4 15 -10 52 -61 182 -77 195 -3 3 -14 19 -23 37 -25 49 -142 163 -222
216 -40 26 -74 47 -77 47 -3 0 -18 5 -34 12 -15 6 -30 12 -33 12 -3 1 -11 5
-18 10 -7 4 -16 5 -19 2 -3 -3 -12 -1 -19 5 -8 6 -20 9 -28 6 -8 -3 -16 -2
-18 4 -2 5 -41 12 -88 15 -137 10 -161 10 -166 3 -2 -4 -17 -4 -32 0 -31 8
-64 7 -81 -3 -6 -4 -11 -2 -11 3 0 6 -3 10 -7 10 -28 -5 -30 4 -11 43 49 101
0 227 -108 277 -45 22 -98 25 -149 8z"/>
</g>
</svg>
